# xmcd
#
# Track frame offsets:
#	150
#	14553
#	30702
#	44220
#	60206
#	73093
#	89837
#	103997
#	119770
#	130264
#	147877
#	164900
#	182648
#	192268
#	202797
#	216258
#
# Disc length: 3083 seconds
#
# Revision: 1
# Processed by: cddbd v1.5.2PL0 Copyright (c) Steve Scherf et al.
# Submitted via: audiograbber 1.83.01
#
DISCID=010c0910
DTITLE=M T M - M T M 027
DYEAR=2008
DGENRE=Country
TTITLE0=The Work Song  - Ray William Roldan
TTITLE1=After Hours - John Foster
TTITLE2=Gentle Love  - Lisa Dudley
TTITLE3=Leanin´  - J C Andersen
TTITLE4=Mississippi Missing Me - Kristynna Bailey
TTITLE5=My Love Won´t Ever Change  - Tin Ridge Band
TTITLE6=Can´t Live With ´em Or Without ´em  - Danney Ball
TTITLE7=You Are  - Face 2 Face
TTITLE8=My Sweet Loves Arms  - Billy Chernoff
TTITLE9=Last Stop  - Razz Bailey and Tracy Nelson
TTITLE10=Buy Your Will - Jerry Croston
TTITLE11=Love My Blues Away  - Dick Barnes
TTITLE12=Louisiana  - Chase Tyler
TTITLE13=Rush  - Rachel Lilliott
TTITLE14=Nothing  - Jim Cristaldi
TTITLE15=Mayby It´s Right  - P J Price
EXTD=
EXTT0=
EXTT1=
EXTT2=
EXTT3=
EXTT4=
EXTT5=
EXTT6=
EXTT7=
EXTT8=
EXTT9=
EXTT10=
EXTT11=
EXTT12=
EXTT13=
EXTT14=
EXTT15=
PLAYORDER=
